<svg data-logo="logo" xmlns="http://www.w3.org/2000/svg" viewBox="0 0 221 43">
        <g id="logogram" transform="translate(0, 1.5) rotate(0)"><path d="M40 13.4683C40.0001 10.7823 39.1891 8.1589 37.673 5.9417C36.1569 3.72451 34.0065 2.01688 31.5035 1.04252C29.0005 0.0681476 26.2615 -0.127534 23.6455 0.48109C21.0293 1.08971 18.658 2.47428 16.8421 4.45341H0V40H35.5601V23.3873C36.9557 22.139 38.0726 20.6104 38.8377 18.9012C39.6027 17.192 39.9988 15.3409 40 13.4683ZM33.1579 13.4683C33.1606 14.7553 32.7814 16.0143 32.0683 17.0858C31.3551 18.1572 30.3402 18.9931 29.1518 19.4874C27.9634 19.9819 26.6552 20.1127 25.3924 19.8631C24.1298 19.6137 22.9695 18.9953 22.0584 18.0861C21.1474 17.1769 20.5266 16.0179 20.2745 14.7557C20.0224 13.4936 20.1505 12.185 20.6424 10.9957C21.1343 9.80626 21.968 8.78957 23.0379 8.07423C24.108 7.35888 25.3661 6.97705 26.6532 6.97703C28.376 6.97703 30.0285 7.6605 31.2479 8.87745C32.4675 10.0944 33.1544 11.7455 33.1579 13.4683ZM28.7179 33.1579H6.84211V11.2955H13.5088C13.38 12.0128 13.3123 12.7397 13.3063 13.4683C13.31 17.007 14.7173 20.3997 17.2196 22.902C19.7217 25.4042 23.1144 26.8116 26.6532 26.8151C27.3451 26.8115 28.0355 26.7528 28.7179 26.6397V33.1579Z" fill="#394149"></path></g>
        <g id="logotype" transform="translate(46, 1)"><path fill="#529e42" d="M25.38 34L8.31 34L8.31 8.54L25.35 8.54L25.35 12.86L13.52 12.86L13.52 19.01L24.44 19.01L24.44 23.27L13.52 23.27L13.52 29.68L25.38 29.68L25.38 34ZM32.50 34.38L32.50 34.38Q30.69 34.38 29.25 33.74Q27.80 33.09 26.98 31.82Q26.15 30.55 26.15 28.65L26.15 28.65Q26.15 27.06 26.74 25.98Q27.33 24.91 28.34 24.26Q29.36 23.61 30.65 23.27Q31.94 22.93 33.36 22.79L33.36 22.79Q35.02 22.62 36.03 22.47Q37.05 22.33 37.52 22.01Q37.99 21.70 37.99 21.08L37.99 21.08L37.99 20.99Q37.99 20.17 37.65 19.61Q37.31 19.05 36.64 18.75Q35.97 18.45 35.00 18.45L35.00 18.45Q34.01 18.45 33.27 18.75Q32.54 19.05 32.08 19.54Q31.62 20.04 31.39 20.65L31.39 20.65L26.69 19.87Q27.19 18.21 28.33 17.05Q29.48 15.88 31.18 15.27Q32.88 14.65 35.00 14.65L35.00 14.65Q36.55 14.65 38.01 15.02Q39.46 15.39 40.61 16.16Q41.77 16.93 42.44 18.16Q43.12 19.39 43.12 21.13L43.12 21.13L43.12 34L38.26 34L38.26 31.35L38.09 31.35Q37.63 32.24 36.86 32.91Q36.09 33.59 35.01 33.98Q33.92 34.38 32.50 34.38ZM33.96 30.77L33.96 30.77Q35.17 30.77 36.08 30.29Q37.00 29.81 37.51 28.99Q38.02 28.17 38.02 27.16L38.02 27.16L38.02 25.10Q37.80 25.27 37.34 25.40Q36.88 25.54 36.32 25.64Q35.75 25.75 35.20 25.83Q34.66 25.92 34.23 25.97L34.23 25.97Q33.29 26.10 32.57 26.41Q31.85 26.72 31.46 27.22Q31.07 27.73 31.07 28.51L31.07 28.51Q31.07 29.25 31.44 29.75Q31.82 30.26 32.46 30.51Q33.10 30.77 33.96 30.77ZM52.80 34.38L52.80 34.38Q50.50 34.38 48.72 33.72Q46.94 33.06 45.82 31.80Q44.69 30.55 44.36 28.77L44.36 28.77L49.13 27.95Q49.51 29.28 50.45 29.95Q51.39 30.62 52.96 30.62L52.96 30.62Q54.41 30.62 55.27 30.06Q56.12 29.51 56.12 28.65L56.12 28.65Q56.12 27.90 55.51 27.42Q54.91 26.94 53.66 26.69L53.66 26.69L50.36 26.00Q47.59 25.44 46.23 24.08Q44.86 22.72 44.86 20.58L44.86 20.58Q44.86 18.74 45.87 17.41Q46.87 16.09 48.67 15.37Q50.46 14.65 52.89 14.65L52.89 14.65Q55.15 14.65 56.80 15.28Q58.46 15.90 59.49 17.05Q60.51 18.19 60.85 19.75L60.85 19.75L56.31 20.55Q56.02 19.58 55.19 18.95Q54.36 18.33 52.96 18.33L52.96 18.33Q51.69 18.33 50.84 18.86Q49.99 19.39 49.99 20.26L49.99 20.26Q49.99 20.99 50.54 21.49Q51.10 21.99 52.45 22.26L52.45 22.26L55.88 22.94Q58.65 23.51 60.00 24.78Q61.35 26.05 61.35 28.10L61.35 28.10Q61.35 29.98 60.26 31.39Q59.16 32.80 57.24 33.59Q55.32 34.38 52.80 34.38ZM62.41 40.77L62.41 40.77L63.59 36.91L64.22 37.06Q65.24 37.33 66.05 37.21Q66.85 37.09 67.34 36.56Q67.82 36.03 67.93 35.08L67.93 35.08L68.06 34.05L60.89 14.89L66.34 14.89L69.55 24.81Q70.13 26.69 70.50 28.57Q70.87 30.45 71.35 32.50L71.35 32.50L70.15 32.50Q70.61 30.45 71.07 28.56Q71.53 26.67 72.15 24.81L72.15 24.81L75.50 14.89L80.88 14.89L72.76 36.26Q72.18 37.79 71.28 38.92Q70.37 40.05 69.02 40.67Q67.67 41.28 65.76 41.28L65.76 41.28Q64.73 41.28 63.84 41.14Q62.95 40.99 62.41 40.77ZM86.67 34L81.46 34L81.46 8.54L91.39 8.54Q94.30 8.54 96.33 9.56Q98.36 10.59 99.43 12.45Q100.50 14.31 100.50 16.82L100.50 16.82Q100.50 19.34 99.41 21.16Q98.33 22.98 96.27 23.94Q94.21 24.91 91.27 24.91L91.27 24.91L84.54 24.91L84.54 20.69L90.43 20.69Q92.04 20.69 93.06 20.25Q94.09 19.82 94.60 18.95Q95.12 18.09 95.12 16.82L95.12 16.82Q95.12 15.53 94.60 14.65Q94.09 13.77 93.06 13.30Q92.02 12.84 90.42 12.84L90.42 12.84L86.67 12.84L86.67 34ZM101.40 34L95.63 34L89.42 22.41L95.08 22.41L101.40 34ZM107.38 34L102.17 34L102.17 8.54L118.92 8.54L118.92 12.86L107.38 12.86L107.38 19.97L117.79 19.97L117.79 24.22L107.38 24.22L107.38 34ZM125.65 34L120.44 34L120.44 8.54L130.37 8.54Q133.27 8.54 135.31 9.64Q137.34 10.74 138.41 12.68Q139.48 14.62 139.48 17.13L139.48 17.13Q139.48 19.66 138.39 21.58Q137.31 23.51 135.25 24.59Q133.19 25.68 130.25 25.68L130.25 25.68L123.86 25.68L123.86 21.47L129.41 21.47Q131.02 21.47 132.05 20.92Q133.08 20.36 133.59 19.39Q134.09 18.41 134.09 17.13L134.09 17.13Q134.09 15.85 133.59 14.88Q133.08 13.90 132.04 13.37Q131.00 12.84 129.39 12.84L129.39 12.84L125.65 12.84L125.65 34ZM144.38 34.32L144.38 34.32Q143.13 34.32 142.28 33.48Q141.42 32.63 141.42 31.39L141.42 31.39Q141.42 30.14 142.28 29.30Q143.13 28.46 144.38 28.46L144.38 28.46Q145.63 28.46 146.48 29.30Q147.34 30.14 147.34 31.39L147.34 31.39Q147.34 32.63 146.48 33.48Q145.63 34.32 144.38 34.32ZM155.47 34.38L155.47 34.38Q153.66 34.38 152.21 33.74Q150.77 33.09 149.94 31.82Q149.11 30.55 149.11 28.65L149.11 28.65Q149.11 27.06 149.70 25.98Q150.29 24.91 151.31 24.26Q152.32 23.61 153.61 23.27Q154.90 22.93 156.32 22.79L156.32 22.79Q157.98 22.62 159.00 22.47Q160.01 22.33 160.48 22.01Q160.95 21.70 160.95 21.08L160.95 21.08L160.95 20.99Q160.95 20.17 160.61 19.61Q160.27 19.05 159.60 18.75Q158.94 18.45 157.96 18.45L157.96 18.45Q156.97 18.45 156.24 18.75Q155.50 19.05 155.04 19.54Q154.58 20.04 154.36 20.65L154.36 20.65L149.66 19.87Q150.15 18.21 151.30 17.05Q152.44 15.88 154.14 15.27Q155.84 14.65 157.96 14.65L157.96 14.65Q159.52 14.65 160.97 15.02Q162.42 15.39 163.58 16.16Q164.73 16.93 165.41 18.16Q166.08 19.39 166.08 21.13L166.08 21.13L166.08 34L161.23 34L161.23 31.35L161.06 31.35Q160.60 32.24 159.83 32.91Q159.06 33.59 157.97 33.98Q156.89 34.38 155.47 34.38ZM156.92 30.77L156.92 30.77Q158.13 30.77 159.05 30.29Q159.96 29.81 160.48 28.99Q160.99 28.17 160.99 27.16L160.99 27.16L160.99 25.10Q160.77 25.27 160.30 25.40Q159.84 25.54 159.28 25.64Q158.72 25.75 158.17 25.83Q157.62 25.92 157.19 25.97L157.19 25.97Q156.25 26.10 155.54 26.41Q154.82 26.72 154.43 27.22Q154.03 27.73 154.03 28.51L154.03 28.51Q154.03 29.25 154.41 29.75Q154.78 30.26 155.43 30.51Q156.07 30.77 156.92 30.77ZM173.31 34L168.18 34L168.18 14.89L173.31 14.89L173.31 34ZM170.74 12.40L170.74 12.40Q169.58 12.40 168.76 11.63Q167.94 10.86 167.94 9.77L167.94 9.77Q167.94 8.67 168.76 7.90Q169.58 7.13 170.74 7.13L170.74 7.13Q171.91 7.13 172.74 7.90Q173.56 8.66 173.56 9.77L173.56 9.77Q173.56 10.86 172.74 11.63Q171.91 12.40 170.74 12.40Z"></path></g>
        
      </svg>