<?xml version="1.0" encoding="UTF-8"?>
<svg version="1.1" xmlns="http://www.w3.org/2000/svg" width="1024" height="1024">
<path d="M0 0 C0.98818222 -0.01149078 1.97636444 -0.02298157 2.99449158 -0.03482056 C4.06733398 -0.0422226 5.14017639 -0.04962463 6.24552917 -0.05725098 C7.38433029 -0.06864105 8.52313141 -0.08003113 9.69644165 -0.09176636 C20.17225163 -0.18912109 30.64865335 -0.24066808 41.12485218 -0.27745819 C48.85966505 -0.30503103 56.59356108 -0.35582596 64.32799226 -0.43793249 C70.43569039 -0.50056125 76.54302494 -0.52469018 82.65102196 -0.53572083 C85.24298871 -0.5461255 87.83493648 -0.56855893 90.42669106 -0.60331726 C94.05584539 -0.6494858 97.68255282 -0.651527 101.31193542 -0.64318848 C102.91209 -0.67858231 102.91209 -0.67858231 104.54457092 -0.71469116 C111.2200131 -0.64055968 114.64288034 0.63724683 119.36002636 5.42275238 C119.89224961 5.99847237 120.42447287 6.57419235 120.9728241 7.1673584 C121.89450378 7.98462402 122.81618347 8.80188965 123.76579285 9.6439209 C124.55598816 10.35290527 125.34618347 11.06188965 126.1603241 11.7923584 C126.95825378 12.50649902 127.75618347 13.22063965 128.57829285 13.9564209 C132.88035679 17.92863655 136.90274276 22.13915497 140.88078308 26.43103027 C149.67730126 35.9165799 158.78286737 45.06490523 167.9728241 54.1673584 C170.85084026 57.0185071 173.72530519 59.87317253 176.5978241 62.7298584 C177.236474 63.36020996 177.8751239 63.99056152 178.53312683 64.64001465 C182.26739126 68.35411513 185.79983068 72.17830523 189.21257019 76.19055176 C190.98945755 78.3181209 190.98945755 78.3181209 193.64285278 80.167099 C197.25130388 84.81363231 196.66307534 89.29261075 196.60392761 95.01916504 C196.61466057 96.82014145 196.61466057 96.82014145 196.62561035 98.65750122 C196.63961219 101.9454551 196.63119261 105.23238878 196.61152005 108.52028584 C196.59509122 111.97267498 196.60395352 115.42501432 196.60903931 118.87742615 C196.61355983 124.68212783 196.5977039 130.48650731 196.56974792 136.2911377 C196.53780152 142.97527853 196.53767057 149.65883494 196.55496269 156.34301668 C196.570913 162.79567573 196.56403319 169.24812324 196.54702568 175.70077324 C196.54020289 178.43455162 196.54113828 181.168158 196.54857063 183.90193367 C196.55406051 187.73824524 196.53352059 191.57358891 196.50627136 195.40979004 C196.51606018 197.08655571 196.51606018 197.08655571 196.52604675 198.79719543 C196.34468098 213.92053159 190.04764652 226.63356011 179.79704285 237.56188965 C174.49842485 242.45010293 168.55616555 246.39705706 162.58366394 250.41149902 C159.74221985 252.3224459 156.91356598 254.25141068 154.08610535 256.1829834 C149.8467684 259.07652018 145.60166421 261.96128485 141.35173035 264.8392334 C137.20452833 267.64897379 133.06634031 270.47108754 128.93766785 273.3079834 C91.99453258 298.68712335 91.99453258 298.68712335 69.9962616 294.61657715 C57.70813519 290.69996888 46.69308091 281.78206665 36.32731628 274.34216309 C27.61898076 268.12748963 18.67127925 262.26604686 9.74382019 256.3729248 C-9.2156035 243.8331629 -25.29438267 233.06098735 -32.57705975 210.46092415 C-33.20779581 207.24701013 -33.17521395 204.06798835 -33.17434692 200.8062439 C-33.17802361 200.06259177 -33.1817003 199.31893965 -33.1854884 198.55275261 C-33.19650607 196.05953477 -33.20036584 193.56635864 -33.20417786 191.07312012 C-33.21044402 189.28582121 -33.21709096 187.4985236 -33.22409058 185.71122742 C-33.24511743 179.83984278 -33.25549255 173.96845793 -33.26545715 168.0970459 C-33.2695054 166.07400626 -33.27362234 164.05096676 -33.27780724 162.0279274 C-33.29685688 152.5217269 -33.31108768 143.01553415 -33.31941921 133.50931823 C-33.32918732 122.5456489 -33.35549672 111.58218169 -33.3959201 100.61858356 C-33.42611036 92.13858492 -33.4408909 83.65864413 -33.44420022 75.1785928 C-33.44654762 70.11672121 -33.45546762 65.05506561 -33.48066139 59.9932518 C-33.50399765 55.22763817 -33.50815303 50.46238188 -33.49790001 45.69672585 C-33.49740587 43.95289863 -33.50369025 42.20905349 -33.51745605 40.46528053 C-33.60713187 28.42671838 -32.84753607 18.19536178 -24.2224884 8.99157715 C-17.22753629 3.17904576 -9.03363443 0.08630326 0 0 Z M-11.0271759 24.1673584 C-13.75149324 28.62935864 -14.40211555 31.9705897 -14.40139771 37.16156006 C-14.40537211 37.84158419 -14.40934652 38.52160833 -14.41344136 39.22223926 C-14.42302321 41.48834161 -14.41127155 43.75381317 -14.39949036 46.01989746 C-14.40191978 47.64985893 -14.40564056 49.27981891 -14.41055298 50.90977478 C-14.419948 55.32945125 -14.4105466 59.74890569 -14.39722085 64.1685648 C-14.385885 68.80168748 -14.39001571 73.43479956 -14.39196777 78.06793213 C-14.39285043 85.8522503 -14.3817793 93.63648134 -14.36335754 101.42077637 C-14.34222011 110.40367939 -14.33867392 119.38645453 -14.3449195 128.36937737 C-14.35062855 137.02554264 -14.34494745 145.68166315 -14.33374596 154.33782196 C-14.32911731 158.01379988 -14.32821863 161.68975026 -14.3303318 165.36573029 C-14.33222527 169.70287318 -14.3240299 174.03988728 -14.30827141 178.37700081 C-14.30405358 179.96278157 -14.30316101 181.54857546 -14.30596161 183.13435936 C-14.32771164 197.66138018 -13.54784073 210.67776008 -3.0428009 221.6673584 C4.48261394 229.03451578 13.42023372 234.46194516 22.2228241 240.1673584 C25.62681916 242.3920318 29.02660476 244.62308706 32.4259491 246.8548584 C33.24840622 247.39316284 34.07086334 247.93146729 34.91824341 248.48608398 C40.50510491 252.15662761 45.97638732 255.95850996 51.39306641 259.87475586 C55.64778003 262.95016192 59.95982906 265.88404776 64.4103241 268.6673584 C65.05163269 269.08243652 65.69294128 269.49751465 66.35368347 269.9251709 C73.74892909 274.57061394 80.41660441 276.08602584 88.9728241 274.1673584 C97.30494239 271.35167704 104.38497584 265.50478017 111.4337616 260.39782715 C115.79009608 257.26208919 120.24715687 254.29061103 124.72038269 251.3248291 C129.92793297 247.87045875 135.11318901 244.38337956 140.29167175 240.88562012 C141.49823551 240.07178487 142.70592463 239.25961563 143.91471863 238.44909668 C164.8983504 224.70363429 164.8983504 224.70363429 176.51333618 203.14631653 C177.17318538 198.86837349 177.10312255 194.65041226 177.08634949 190.32824707 C177.08656853 188.84948593 177.08656853 188.84948593 177.08679199 187.34085083 C177.08609647 184.08898706 177.07832091 180.83718089 177.07048035 177.58532715 C177.06861489 175.32802868 177.06719159 173.0707298 177.06619263 170.81343079 C177.06237753 164.87703327 177.05255581 158.94066029 177.04148865 153.00427246 C177.03125289 146.94470552 177.02669037 140.88513462 177.02165222 134.82556152 C177.01093266 122.93948305 176.9938683 111.05342276 176.9728241 99.1673584 C176.33326279 99.16371277 175.69370148 99.16006714 175.03475952 99.15631104 C168.33382277 99.11426186 161.63355673 99.04476095 154.93302917 98.95983887 C152.43765495 98.93174108 149.94219357 98.91047133 147.44670105 98.8963623 C143.8442814 98.874778 140.24289738 98.82804627 136.64079285 98.7767334 C134.9869886 98.77489044 134.9869886 98.77489044 133.29977417 98.77301025 C124.50057777 98.60936492 117.0863604 96.75736274 109.5978241 92.0423584 C103.80074872 85.69318061 100.90693751 78.28172145 100.76750183 69.75622559 C100.737584 68.13499786 100.737584 68.13499786 100.70706177 66.48101807 C100.69034927 65.32047913 100.67363678 64.15994019 100.65641785 62.9642334 C100.63563675 61.77130676 100.61485565 60.57838013 100.59344482 59.3493042 C100.5280617 55.53871417 100.46911633 51.72805526 100.4103241 47.9173584 C100.36712821 45.33401794 100.32351357 42.75068445 100.27946472 40.1673584 C100.17239176 33.83409788 100.07060437 27.50076884 99.9728241 21.1673584 C86.38618155 21.0978474 72.79958132 21.04454137 59.21279716 21.01192188 C52.9039011 20.99626616 46.5951267 20.97502925 40.28630066 20.94104004 C34.19792103 20.90844378 28.10965843 20.89050468 22.02119827 20.88272667 C19.69837222 20.87718369 17.37555257 20.86635966 15.05277634 20.85016823 C11.79925952 20.82839087 8.54622629 20.82539167 5.29264832 20.82678223 C4.33239243 20.8159964 3.37213654 20.80521057 2.38278198 20.7940979 C-2.77865919 20.81796796 -6.70762075 21.01802301 -11.0271759 24.1673584 Z M116.9728241 31.1673584 C116.92323078 36.46926524 116.88701309 41.77103577 116.86296082 47.07312012 C116.85292933 48.87522739 116.83930095 50.6773185 116.82194519 52.47937012 C116.7975711 55.07592775 116.78631232 57.67226937 116.7775116 60.2689209 C116.76718903 61.0691568 116.75686646 61.8693927 116.74623108 62.69387817 C116.7450527 68.62497276 117.41232782 73.16100604 121.1603241 77.9798584 C126.37538957 82.03602044 133.167638 81.30873101 139.53141785 81.26501465 C140.32057083 81.2635997 141.10972382 81.26218475 141.92279053 81.26072693 C144.41867525 81.25517395 146.91446695 81.24263048 149.4103241 81.2298584 C151.11279675 81.22483731 152.81527082 81.22027547 154.51774597 81.21618652 C158.66947398 81.20521998 162.82113332 81.18798831 166.9728241 81.1673584 C162.11181955 75.30365756 156.86276188 69.94276354 151.45329285 64.58532715 C150.55411636 63.68993729 149.65493988 62.79454742 148.72851562 61.87202454 C145.87486533 59.03052977 143.01808937 56.19221278 140.1603241 53.3548584 C136.37998891 49.60134305 132.6032256 45.84427785 128.82829285 42.08532715 C127.95545151 41.22078415 127.08261017 40.35624115 126.18331909 39.46549988 C125.38190994 38.66739395 124.58050079 37.86928802 123.75480652 37.04699707 C123.04676376 36.34419113 122.33872101 35.64138519 121.60922241 34.9172821 C119.9728241 33.1673584 119.9728241 33.1673584 118.9728241 31.1673584 C118.3128241 31.1673584 117.6528241 31.1673584 116.9728241 31.1673584 Z " fill="#154068" transform="translate(157.0271759033203,348.8326416015625)"/>
<path d="M0 0 C5.76802717 4.93031067 10.19624113 10.43369288 14.14453125 16.89453125 C14.74394531 17.86132812 14.74394531 17.86132812 15.35546875 18.84765625 C22.4106026 31.47263262 22.80920959 46.91509598 19.23828125 60.63671875 C15.97233988 70.3645584 10.75381649 77.85151961 3.6953125 85.19921875 C1.12744717 87.91258334 -1.21033223 90.72774214 -3.54296875 93.64453125 C-6.53127131 97.34981708 -9.61907346 100.7224469 -13.04296875 104.01953125 C-16.14611926 107.22968695 -18.8525554 110.76910239 -21.6484375 114.24609375 C-24.06586601 117.14700797 -26.63528865 119.77748902 -29.35546875 122.390625 C-31.07650594 124.05753086 -31.07650594 124.05753086 -33.16796875 126.83203125 C-33.72484375 127.51265625 -34.28171875 128.19328125 -34.85546875 128.89453125 C-36.85546875 128.89453125 -36.85546875 128.89453125 -38.265625 127.49609375 C-38.81089844 126.84382812 -39.35617188 126.1915625 -39.91796875 125.51953125 C-42.68364284 122.26512058 -45.48855067 119.06039292 -48.35546875 115.89453125 C-51.6225121 112.27429402 -54.85067651 108.6246956 -58.05078125 104.9453125 C-60.08505016 102.63364328 -62.15769185 100.35921695 -64.23046875 98.08203125 C-68.96270544 92.83472117 -73.42849812 87.39986652 -77.85546875 81.89453125 C-78.49742187 81.13269531 -79.139375 80.37085938 -79.80078125 79.5859375 C-91.01414097 65.96971499 -93.18138923 51.00222022 -91.85546875 33.89453125 C-89.31247721 19.43126689 -80.83574039 6.84824242 -69.10546875 -1.85546875 C-47.49635277 -16.14002241 -20.95875159 -15.45385377 0 0 Z M-57.85546875 26.89453125 C-62.48801134 33.72867824 -64.4956128 40.78508625 -63.6328125 49.01953125 C-61.93627974 57.45278147 -56.84237451 64.06556831 -49.85546875 68.89453125 C-42.81365769 72.74759768 -35.50998767 73.85159914 -27.73046875 71.83203125 C-19.26179561 68.88062554 -13.84622837 63.85989356 -9.85546875 55.89453125 C-6.59560052 48.90909934 -6.84922923 40.90415269 -9.35546875 33.70703125 C-12.74859842 26.21833454 -18.61544429 20.50732192 -26.30078125 17.515625 C-38.66139259 14.51052224 -49.49446416 17.39014142 -57.85546875 26.89453125 Z " fill="#0AA37B" transform="translate(274.85546875,467.10546875)"/>
<path d="M0 0 C7.14716917 6.51613312 11.57942585 14.81549158 12.23828125 24.50390625 C12.56731877 36.62744341 10.66774 46.73514896 2.16796875 55.99609375 C-4.68591642 62.7264855 -12.49180299 66.05943104 -22.125 66.4375 C-30.33911095 66.05452698 -36.17898936 63.54734042 -43 59 C-43.33 70.88 -43.66 82.76 -44 95 C-49.61 95 -55.22 95 -61 95 C-61 61.67 -61 28.34 -61 -6 C-55.39 -6 -49.78 -6 -44 -6 C-43.67 -4.02 -43.34 -2.04 -43 0 C-42.49210938 -0.33773438 -41.98421875 -0.67546875 -41.4609375 -1.0234375 C-27.89955897 -9.81039812 -13.02152999 -10.17800698 0 0 Z M-42 16 C-45.90219546 22.80747967 -45.67177404 30.51951956 -44 38 C-41.78254828 42.98729354 -38.55260949 46.04198154 -33.75 48.5625 C-27.88668462 50.76986579 -22.48911094 50.45930113 -16.73046875 48.05078125 C-10.72780344 44.69864348 -8.16496247 40.49488741 -6 34 C-5.21944587 26.91103296 -6.13374107 21.05673999 -10 15 C-14.13108303 10.11889325 -19.23028097 8.48329731 -25.4375 7.6875 C-32.00581337 8.48851383 -37.46196408 11.14535692 -42 16 Z " fill="#143F67" transform="translate(845,489)"/>
<path d="M0 0 C6.27 0 12.54 0 19 0 C23.5 9 23.5 9 24.73925781 12.39648438 C25.01924622 13.1566687 25.29923462 13.91685303 25.58770752 14.70007324 C25.87329529 15.48998657 26.15888306 16.2798999 26.453125 17.09375 C26.75820984 17.92588013 27.06329468 18.75801025 27.37762451 19.61535645 C28.339494 22.24198341 29.29484923 24.87092339 30.25 27.5 C30.9058186 29.29442856 31.56206463 31.08870096 32.21875 32.8828125 C33.81744344 37.25341996 35.41030405 41.62611233 37 46 C38.62990215 43.55514677 39.52732791 41.83980872 40.48046875 39.14282227 C40.75415283 38.3751503 41.02783691 37.60747833 41.30981445 36.81654358 C41.7442688 35.5789756 41.7442688 35.5789756 42.1875 34.31640625 C42.49067139 33.46449203 42.79384277 32.61257782 43.10620117 31.73484802 C44.07470012 29.01209769 45.0377653 26.28746986 46 23.5625 C46.96277176 20.8412992 47.92675519 18.12054941 48.89379883 15.40086365 C49.49521766 13.70897362 50.09411293 12.01618391 50.69018555 10.32240295 C50.96386963 9.55157883 51.23755371 8.7807547 51.51953125 7.98657227 C51.75776611 7.31167252 51.99600098 6.63677277 52.24145508 5.94142151 C53.03609305 3.90762336 54.02349763 1.95300474 55 0 C61.27 0 67.54 0 74 0 C73.25255589 4.48466469 72.5683699 7.50024171 70.91015625 11.56640625 C70.46422119 12.67024658 70.01828613 13.77408691 69.55883789 14.91137695 C68.81815063 16.71868286 68.81815063 16.71868286 68.0625 18.5625 C67.26403871 20.52755152 66.46754358 22.49339314 65.67112732 24.45927429 C65.0886477 25.89667014 64.50542197 27.33376382 63.92152405 28.77058411 C61.37030957 35.05698938 58.86949085 41.36278158 56.375 47.671875 C55.16995334 50.71224472 53.96433123 53.75238561 52.7585144 56.79244995 C51.966015 58.79358628 51.17540238 60.79547094 50.38674927 62.79812622 C49.26487409 65.64507323 48.13517732 68.48880706 47.00390625 71.33203125 C46.6740271 72.174776 46.34414795 73.01752075 46.00427246 73.88580322 C41.63293988 84.81796677 36.92722766 94.6357246 26 100 C20.60142655 101.81128608 14.59950735 101.05599507 9 101 C9 95.72 9 90.44 9 85 C10.5675 84.7525 12.135 84.505 13.75 84.25 C18.01381252 83.37799321 20.4719385 82.74153101 23 79 C25.42852984 74.39416754 26.38127908 71.97379215 25 67 C23.8957261 63.84545514 22.68533538 60.73614811 21.46484375 57.625 C21.10789932 56.70525391 20.7509549 55.78550781 20.38319397 54.83789062 C19.23844829 51.89042509 18.08817728 48.94515428 16.9375 46 C15.44533471 42.16716424 13.95504089 38.33360136 12.46484375 34.5 C12.09749115 33.55503662 11.73013855 32.61007324 11.35165405 31.63647461 C8.70488162 24.82400331 6.06255673 18.00987518 3.44140625 11.1875 C3.0944017 10.29160156 2.74739716 9.39570313 2.38987732 8.47265625 C2.07502884 7.65023438 1.76018036 6.8278125 1.43579102 5.98046875 C1.15751968 5.25754639 0.87924835 4.53462402 0.59254456 3.78979492 C0 2 0 2 0 0 Z " fill="#174169" transform="translate(601,483)"/>
<path d="M0 0 C8.29048553 5.6219855 12.80480959 12.81896145 15.3125 22.4375 C16 27 16 27 16 38 C-9.245 38.495 -9.245 38.495 -35 39 C-32.1828804 45.57327907 -30.61439394 49.15077519 -24.3125 52.375 C-18.531244 53.46580302 -12.55100471 53.36793691 -7.5 50.0625 C-5.01832349 48.08195853 -5.01832349 48.08195853 -3 46 C-0.0906442 45.85482256 2.719946 45.81369204 5.625 45.875 C6.42679687 45.88402344 7.22859375 45.89304687 8.0546875 45.90234375 C10.03658523 45.92593777 12.01832981 45.96180935 14 46 C12.92697891 53.1164732 8.66408606 57.92056194 3.125 62.3125 C-5.44239019 68.34079749 -15.45380197 70.28307114 -25.7109375 68.5390625 C-35.27953714 66.26082449 -43.59517855 61.40383823 -49 53 C-54.46357513 41.82768932 -55.70486353 30.61483349 -52.03515625 18.6328125 C-48.66615798 10.064115 -42.67008105 3.08116944 -34.5703125 -1.3203125 C-23.58420053 -5.98207515 -10.50813081 -5.81230985 0 0 Z M-32.375 16.375 C-34.39211294 19.40811755 -34.39211294 19.40811755 -36 25 C-24.78 25 -13.56 25 -2 25 C-3.07145877 18.57124736 -4.29454985 16.16674208 -9 12 C-17.5473961 7.8172317 -25.83947458 9.83947458 -32.375 16.375 Z " fill="#19426A" transform="translate(450,486)"/>
<path d="M0 0 C7.40427655 8.01837531 7.31021629 19.59316268 7.1953125 29.91796875 C7.1924826 30.90122635 7.18965271 31.88448395 7.18673706 32.89753723 C7.17566891 35.99432286 7.15059053 39.0908039 7.125 42.1875 C7.11495289 44.30533432 7.10583009 46.42317324 7.09765625 48.54101562 C7.07577359 53.69412523 7.04133839 58.84701124 7 64 C1.72 64 -3.56 64 -9 64 C-9.495 60.535 -9.495 60.535 -10 57 C-10.763125 57.7425 -11.52625 58.485 -12.3125 59.25 C-18.26718671 64.17946942 -26.09687208 66.7148971 -33.8046875 66.328125 C-40.81641603 65.28010864 -47.63898755 62.90067244 -52.1875 57.3125 C-55.81406264 50.68464414 -56.89578593 44.4045552 -55 37 C-52.16621453 31.63604894 -48.63501988 28.07517003 -42.984375 25.76953125 C-31.66557769 22.42037021 -21.79285834 21.84902457 -10 22 C-10.31049726 20.56206608 -10.6234776 19.1246682 -10.9375 17.6875 C-11.11152344 16.88699219 -11.28554688 16.08648437 -11.46484375 15.26171875 C-11.99886159 12.854599 -11.99886159 12.854599 -13 10 C-18.67076265 7.58690951 -24.01635947 7.59029486 -30 9 C-33.94749076 11.38494233 -34.90124703 12.80249406 -37 17 C-42.28 17 -47.56 17 -53 17 C-52.60273657 9.58441603 -50.62337388 4.36988682 -45.1015625 -0.765625 C-32.44500875 -10.75508888 -12.35738838 -10.711327 0 0 Z M-37 40 C-37.50070321 43.37357334 -37.50070321 43.37357334 -37 47 C-34.41803955 49.97316658 -32.46488048 50.86843005 -28.6875 51.9375 C-22.91958421 52.03526128 -18.86392827 50.25612557 -14.125 47.0625 C-11.41499667 44.43220265 -10.10062874 42.80437741 -9.88671875 38.96875 C-9.87620864 36.97883613 -9.93370543 34.98883703 -10 33 C-19.56770429 32.63201137 -29.87288041 32.87288041 -37 40 Z " fill="#174169" transform="translate(527,489)"/>
<path d="M0 0 C5.9519242 5.46528888 7.94903221 11.16375004 8.36018372 19.15591431 C8.49525262 22.90292349 8.55830743 26.64953914 8.61328125 30.3984375 C8.6465435 31.90432484 8.68104096 33.41018543 8.71679688 34.91601562 C8.94269759 45.09806717 8.95276642 55.27673507 8.92578125 65.4609375 C3.31578125 65.4609375 -2.29421875 65.4609375 -8.07421875 65.4609375 C-8.40421875 63.4809375 -8.73421875 61.5009375 -9.07421875 59.4609375 C-9.75484375 60.0590625 -10.43546875 60.6571875 -11.13671875 61.2734375 C-18.00650981 66.38923935 -25.59891329 68.28492553 -34.07421875 67.4609375 C-40.5325472 66.12201575 -46.32270077 64.46654871 -50.22265625 58.7890625 C-53.85504731 52.76083904 -55.12926926 47.46516789 -53.6484375 40.44140625 C-51.70343248 34.20068464 -47.98106651 30.54066034 -42.26171875 27.49609375 C-31.40681949 22.95060469 -19.60923713 23.19744723 -8.07421875 23.4609375 C-8.47264434 21.85214328 -8.89375032 20.24895577 -9.32421875 18.6484375 C-9.67226563 17.30845703 -9.67226563 17.30845703 -10.02734375 15.94140625 C-11.26684185 13.00453576 -12.32419631 12.02740598 -15.07421875 10.4609375 C-19.59925325 9.13939323 -23.36110559 9.26220105 -27.88671875 10.5234375 C-31.27945992 12.21991913 -31.27945992 12.21991913 -32.7578125 15.55859375 C-35.07421875 18.4609375 -35.07421875 18.4609375 -38.96484375 19.046875 C-40.41912812 19.0072127 -41.87283503 18.93594451 -43.32421875 18.8359375 C-44.44183594 18.79533203 -44.44183594 18.79533203 -45.58203125 18.75390625 C-47.41400868 18.68344558 -49.24449026 18.57582743 -51.07421875 18.4609375 C-50.67695532 11.04535353 -48.69759263 5.83082432 -43.17578125 0.6953125 C-31.15361319 -8.7934485 -12.45821687 -9.24395 0 0 Z M-33.46484375 39.34765625 C-35.82486489 42.44661605 -35.55561591 44.67853123 -35.07421875 48.4609375 C-32.46677484 51.78822789 -29.65241302 52.57673274 -25.62109375 53.3671875 C-20.92958692 53.539881 -17.06244102 51.81370172 -13.07421875 49.4609375 C-9.35898336 45.74570211 -8.10137558 43.06319072 -8.01171875 37.7734375 C-8.03234375 36.6803125 -8.05296875 35.5871875 -8.07421875 34.4609375 C-16.21033999 34.04010364 -26.85388323 34.1301825 -33.46484375 39.34765625 Z " fill="#174068" transform="translate(944.07421875,487.5390625)"/>
<path d="M0 0 C3.75868451 3.31833654 6.73873675 7.08107332 8 12 C8 13.98 8 15.96 8 18 C2.72 18 -2.56 18 -8 18 C-8.99 16.02 -9.98 14.04 -11 12 C-14.8223223 9.41431138 -18.51756961 9.97531844 -22.9140625 10.41796875 C-25.42586358 11.1188271 -26.44090528 11.92448589 -28 14 C-28.25048636 17.12549017 -28.25048636 17.12549017 -28 20 C-23.0707234 21.76045593 -18.20361777 23.21368858 -13.09863281 24.38696289 C-4.63258508 26.35574249 2.75016705 28.19531753 8.5625 35 C11.35137925 40.87335399 10.97665838 48.23986523 9.375 54.40625 C6.66413545 60.69932841 1.67967711 64.52255389 -4.578125 67.03515625 C-14.79870471 70.1743343 -25.83671502 70.3167281 -35.640625 65.77734375 C-41.01232608 62.83233219 -45.18186857 60.04088832 -47 54 C-47.56632541 50.63651953 -47.81273331 47.41761701 -48 44 C-42.39 44 -36.78 44 -31 44 C-30.01 46.31 -29.02 48.62 -28 51 C-23.35710565 54.3472029 -19.51887632 54.52560727 -14 54 C-11.63706998 52.84367254 -9.85016245 51.85016245 -8 50 C-8.28730055 47.66055264 -8.61936779 45.3260857 -9 43 C-14.08558968 40.92424911 -19.1785126 39.40684116 -24.5 38.0625 C-32.68099903 35.94961998 -39.36091926 33.66436815 -45 27 C-46.97594131 21.07217607 -47.1864236 14.21694305 -45.01171875 8.3203125 C-41.05323818 1.6968267 -35.33346967 -1.23357308 -28.171875 -3.60546875 C-18.95961018 -5.27891973 -8.02655113 -5.21878419 0 0 Z " fill="#194269" transform="translate(590,486)"/>
<path d="M0 0 C2.495625 0.061875 4.99125 0.12375 7.5625 0.1875 C7.5625 5.4675 7.5625 10.7475 7.5625 16.1875 C2.58203125 16.82226562 2.58203125 16.82226562 -2.3984375 17.45703125 C-5.73282084 17.89449334 -5.73282084 17.89449334 -7.4375 21.1875 C-7.89351261 23.69646686 -7.89351261 23.69646686 -8.0625 26.375 C-8.13726563 27.27605469 -8.21203125 28.17710937 -8.2890625 29.10546875 C-8.33804688 29.79253906 -8.38703125 30.47960937 -8.4375 31.1875 C-6.83068359 31.17009766 -6.83068359 31.17009766 -5.19140625 31.15234375 C-3.79427257 31.14296701 -2.39713701 31.13386669 -1 31.125 C-0.29294922 31.11662109 0.41410156 31.10824219 1.14257812 31.09960938 C2.94943559 31.09096412 4.75637603 31.13529989 6.5625 31.1875 C7.5625 32.1875 7.5625 32.1875 7.66015625 35.78515625 C7.65441272 37.27347255 7.64139891 38.76176296 7.625 40.25 C7.604375 42.869375 7.58375 45.48875 7.5625 48.1875 C2.2825 48.1875 -2.9975 48.1875 -8.4375 48.1875 C-8.4375 65.6775 -8.4375 83.1675 -8.4375 101.1875 C-14.3775 101.1875 -20.3175 101.1875 -26.4375 101.1875 C-26.4375 83.6975 -26.4375 66.2075 -26.4375 48.1875 C-29.7375 48.1875 -33.0375 48.1875 -36.4375 48.1875 C-36.4375 42.5775 -36.4375 36.9675 -36.4375 31.1875 C-33.1375 31.1875 -29.8375 31.1875 -26.4375 31.1875 C-26.56125 28.8053125 -26.56125 28.8053125 -26.6875 26.375 C-26.66060792 19.41891446 -25.37963956 12.76321912 -20.859375 7.26953125 C-14.57654196 1.53856868 -8.29640259 -0.2936703 0 0 Z " fill="#18446B" transform="translate(767.4375,451.8125)"/>
<path d="M0 0 C0 5.94 0 11.88 0 18 C-2.97 18 -5.94 18 -9 18 C-14.32865292 18.81103663 -18.00717076 19.83766333 -21.5625 24 C-23.24995936 27.52165432 -24.12210512 30.24059486 -24.20532227 34.10424805 C-24.22526749 34.92487228 -24.24521271 35.74549652 -24.26576233 36.59098816 C-24.29083107 37.9129998 -24.29083107 37.9129998 -24.31640625 39.26171875 C-24.33718735 40.16751175 -24.35796844 41.07330475 -24.37937927 42.00654602 C-24.44476558 44.90012016 -24.50370904 47.79378507 -24.5625 50.6875 C-24.6056956 52.64909793 -24.64931023 54.61068668 -24.69335938 56.57226562 C-24.80122443 61.38141874 -24.90037907 66.19064073 -25 71 C-30.94 71 -36.88 71 -43 71 C-43 47.9 -43 24.8 -43 1 C-37.06 1 -31.12 1 -25 1 C-24.67 3.64 -24.34 6.28 -24 9 C-23.49210938 8.51789063 -22.98421875 8.03578125 -22.4609375 7.5390625 C-15.04314287 0.73247193 -9.93411542 -0.26848961 0 0 Z " fill="#1C446B" transform="translate(724,482)"/>
<path d="M0 0 C5.61 0 11.22 0 17 0 C17 23.1 17 46.2 17 70 C11.39 70 5.78 70 0 70 C0 46.9 0 23.8 0 0 Z " fill="#124068" transform="translate(964,483)"/>
<path d="M0 0 C1.37332853 -0.00082924 2.74665696 -0.00329069 4.11997986 -0.00730896 C6.99248269 -0.01016217 9.86420369 0.0044873 12.73657227 0.03198242 C16.41448742 0.06609848 20.09100819 0.06003285 23.76899052 0.04131985 C26.6026925 0.03074189 29.43607105 0.03969396 32.26974297 0.05470467 C34.28382442 0.06239057 36.29794508 0.05503885 38.31202698 0.04747009 C39.53687302 0.06330643 40.76171906 0.07914276 42.02368164 0.09545898 C43.10114151 0.10165756 44.17860138 0.10785614 45.28871155 0.11424255 C48.77136915 0.75412575 49.9321744 1.8727981 52.08984375 4.62890625 C53.08984375 7.56640625 53.08984375 7.56640625 53.08984375 10.62890625 C50.98956229 14.00435859 49.88781491 15.36291586 46.08984375 16.62890625 C44.19949337 16.73232886 42.30573319 16.77744503 40.41259766 16.79003906 C39.24773834 16.79964661 38.08287903 16.80925415 36.88272095 16.81915283 C34.99364517 16.82552765 34.99364517 16.82552765 33.06640625 16.83203125 C31.12621109 16.84058136 31.12621109 16.84058136 29.14682007 16.8493042 C26.40809741 16.85980298 23.66940401 16.865653 20.93066406 16.86914062 C17.42793852 16.87462363 13.92560203 16.89865167 10.42299843 16.92711258 C7.07497519 16.95025882 3.72700535 16.95218976 0.37890625 16.95703125 C-1.50409683 16.97555145 -1.50409683 16.97555145 -3.42514038 16.9944458 C-4.59630402 16.9914447 -5.76746765 16.9884436 -6.97412109 16.98535156 C-8.00209808 16.98899719 -9.03007507 16.99264282 -10.08920288 16.99639893 C-13.37164676 16.56878672 -15.25298905 15.57218941 -17.91015625 13.62890625 C-19.3544648 10.74028916 -19.28704131 8.83242924 -18.91015625 5.62890625 C-14.54320646 -1.39366466 -7.53631304 -0.0758207 0 0 Z " fill="#1A446B" transform="translate(183.91015625,418.37109375)"/>
<path d="M0 0 C3.93581872 2.26017313 6.49462912 4.68042049 8.125 8.9375 C7.93099764 13.69055772 6.43114976 17.29362913 3.375 20.9375 C-0.40545911 22.62875802 -3.94295787 22.77210144 -8 22 C-11.06881816 20.28095248 -13.40357084 18.19285833 -15 15 C-15.40710593 10.76609838 -15.25575965 8.48411648 -13.25 4.6875 C-9.32555463 -0.00003197 -6.1263041 -0.8306853 0 0 Z " fill="#184169" transform="translate(876,531)"/>
<path d="M0 0 C2.69990662 1.79993774 4.5418865 3.083773 6 6 C6.48809142 10.31147425 6.50255798 12.29946463 3.9375 15.875 C0.42309156 18.41733802 -1.67500571 19 -6 19 C-8.84797885 17.79752004 -10.43250692 16.69646878 -12.375 14.3125 C-13.34433474 10.72596145 -13.21763704 7.474894 -12 4 C-8.20641416 0.47108294 -5.1513049 -0.87681786 0 0 Z " fill="#1B446C" transform="translate(976,459)"/>
<path d="M0 0 C5.61 0 11.22 0 17 0 C17 23.1 17 46.2 17 70 C11.39 70 5.78 70 0 70 C0 46.9 0 23.8 0 0 Z M2 2 C2 24.11 2 46.22 2 69 C6.62 69 11.24 69 16 69 C16 46.89 16 24.78 16 2 C11.38 2 6.76 2 2 2 Z " fill="#16325C" transform="translate(964,483)"/>
<path d="M0 0 C2.97 0 5.94 0 9 0 C9 0.33 9 0.66 9 1 C6.36 1 3.72 1 1 1 C1 5.29 1 9.58 1 14 C3.1965625 13.9690625 3.1965625 13.9690625 5.4375 13.9375 C6.95832518 13.91607993 8.48071962 13.92820036 10 14 C11 15 11 15 11.12025452 17.13233948 C11.1169236 18.54131752 11.1169236 18.54131752 11.11352539 19.97875977 C11.11344986 21.03978409 11.11337433 22.10080841 11.11329651 23.19398499 C11.10813522 24.348134 11.10297394 25.50228302 11.09765625 26.69140625 C11.0962413 27.86638168 11.09482635 29.04135712 11.09336853 30.25193787 C11.08774992 34.02215064 11.07519426 37.79230504 11.0625 41.5625 C11.0574874 44.11132727 11.05292408 46.66015547 11.04882812 49.20898438 C11.03777444 55.4726789 11.02049734 61.73632954 11 68 C15.62 68 20.24 68 25 68 C25 50.84 25 33.68 25 16 C25.33 16 25.66 16 26 16 C26 33.49 26 50.98 26 69 C20.39 69 14.78 69 9 69 C9 51.51 9 34.02 9 16 C6.03 16 3.06 16 0 16 C0 10.72 0 5.44 0 0 Z " fill="#253C63" transform="translate(732,484)"/>
<path d="M0 0 C0.33 0 0.66 0 1 0 C1 3.63 1 7.26 1 11 C2.60681641 10.98259766 2.60681641 10.98259766 4.24609375 10.96484375 C5.64322743 10.95546701 7.04036299 10.94636669 8.4375 10.9375 C9.14455078 10.92912109 9.85160156 10.92074219 10.58007812 10.91210938 C12.38693559 10.90346412 14.19387603 10.94779989 16 11 C17 12 17 12 17.09765625 15.59765625 C17.09191272 17.08597255 17.07889891 18.57426296 17.0625 20.0625 C17.041875 22.681875 17.02125 25.30125 17 28 C11.72 27.67 6.44 27.34 1 27 C1 26.67 1 26.34 1 26 C5.62 26 10.24 26 15 26 C15 21.71 15 17.42 15 13 C13.39318359 13.01740234 13.39318359 13.01740234 11.75390625 13.03515625 C10.35677257 13.04453299 8.95963701 13.05363331 7.5625 13.0625 C6.85544922 13.07087891 6.14839844 13.07925781 5.41992188 13.08789062 C3.61306441 13.09653588 1.80612397 13.05220011 0 13 C-1 12 -1 12 -1.1328125 9.78515625 C-1.13023437 8.88667969 -1.12765625 7.98820312 -1.125 7.0625 C-1.12757813 6.16660156 -1.13015625 5.27070313 -1.1328125 4.34765625 C-1 2 -1 2 0 0 Z " fill="#415678" transform="translate(758,472)"/>
<path d="M0 0 C2.97 0 5.94 0 9 0 C9 0.33 9 0.66 9 1 C6.69 1 4.38 1 2 1 C2 5.29 2 9.58 2 14 C5.96 14 9.92 14 14 14 C13.67 14.66 13.34 15.32 13 16 C8.71 16 4.42 16 0 16 C0 10.72 0 5.44 0 0 Z " fill="#294168" transform="translate(610,568)"/>
<path d="M0 0 C3.77468671 0.56620301 5.47551893 2.12268981 8.109375 4.81640625 C8.86347656 5.58017578 9.61757813 6.34394531 10.39453125 7.13085938 C11.17183594 7.93330078 11.94914062 8.73574219 12.75 9.5625 C13.54277344 10.36880859 14.33554687 11.17511719 15.15234375 12.00585938 C17.10847046 13.99733778 19.05725719 15.99547721 21 18 C20.34 18.66 19.68 19.32 19 20 C15.8293305 16.85817898 12.66414446 13.71089125 9.5 10.5625 C8.59378906 9.66466797 7.68757813 8.76683594 6.75390625 7.84179688 C5.89667969 6.98779297 5.03945313 6.13378906 4.15625 5.25390625 C3.36025391 4.46314697 2.56425781 3.6723877 1.74414062 2.85766602 C0 1 0 1 0 0 Z " fill="#445A7C" transform="translate(281,386)"/>
<path d="M0 0 C6.27 0 12.54 0 19 0 C22 6 22 6 22 8 C21.34 8 20.68 8 20 8 C19.34 6.35 18.68 4.7 18 3 C12.39 3 6.78 3 1 3 C0.67 2.01 0.34 1.02 0 0 Z " fill="#3F5376" transform="translate(601,483)"/>
<path d="M0 0 C1.010625 0.78375 2.02125 1.5675 3.0625 2.375 C9.4579287 6.90296352 16.3885077 7.41803479 24 8 C23.67 8.66 23.34 9.32 23 10 C15.27203604 10.42933133 8.47163115 9.22184393 1.875 5 C0 3 0 3 0 0 Z " fill="#415376" transform="translate(895,545)"/>
<path d="M0 0 C0 0.66 0 1.32 0 2 C-0.61875 2.0825 -1.2375 2.165 -1.875 2.25 C-4.15354435 2.79278299 -4.15354435 2.79278299 -5.0625 4.875 C-5.5265625 5.926875 -5.5265625 5.926875 -6 7 C-7.5 8.75 -7.5 8.75 -9 10 C-9.66 10 -10.32 10 -11 10 C-11 10.66 -11 11.32 -11 12 C-11.66 12 -12.32 12 -13 12 C-11.60991124 6.74855359 -8.1957125 4.12699328 -4 1 C-2 0 -2 0 0 0 Z " fill="#2D486E" transform="translate(490,484)"/>
<path d="M0 0 C3.68069887 1.53643852 5.98775204 3.78150945 8.75 6.625 C9.54921875 7.44226563 10.3484375 8.25953125 11.171875 9.1015625 C12.07679688 10.04128906 12.07679688 10.04128906 13 11 C12.34 11.66 11.68 12.32 11 13 C9.16052663 11.21427748 7.32842259 9.42197551 5.5 7.625 C4.71302734 6.86316406 4.71302734 6.86316406 3.91015625 6.0859375 C2.56846819 4.76167396 1.28004185 3.38394135 0 2 C0 1.34 0 0.68 0 0 Z " fill="#3B5378" transform="translate(324,404)"/>
<path d="M0 0 C0 0.66 0 1.32 0 2 C-1.37695312 3.14501953 -1.37695312 3.14501953 -3.28125 4.3828125 C-4.29638672 5.04990234 -4.29638672 5.04990234 -5.33203125 5.73046875 C-6.40517578 6.42076172 -6.40517578 6.42076172 -7.5 7.125 C-8.57314453 7.82689453 -8.57314453 7.82689453 -9.66796875 8.54296875 C-11.44126915 9.70152501 -13.2201309 10.85156066 -15 12 C-15.66 11.67 -16.32 11.34 -17 11 C-17 10.34 -17 9.68 -17 9 C-15.824375 8.443125 -14.64875 7.88625 -13.4375 7.3125 C-10.46081405 5.83737499 -7.79620998 4.22388358 -5.125 2.25 C-2 0 -2 0 0 0 Z " fill="#2E476D" transform="translate(291,617)"/>
<path d="M0 0 C3.21524305 1.40844718 5.32183868 3.10344786 7.75 5.625 C8.67039062 6.57246094 8.67039062 6.57246094 9.609375 7.5390625 C10.29773438 8.26222656 10.29773438 8.26222656 11 9 C10.34 9.66 9.68 10.32 9 11 C7.49403892 9.54782324 5.99537896 8.08807139 4.5 6.625 C3.6646875 5.81289063 2.829375 5.00078125 1.96875 4.1640625 C0 2 0 2 0 0 Z " fill="#2A446B" transform="translate(301,405)"/>
<path d="M0 0 C3.45195767 1.4258086 5.1014256 3.09746334 7.25 6.125 C8.03117188 7.21167969 8.03117188 7.21167969 8.828125 8.3203125 C9.40820312 9.15175781 9.40820312 9.15175781 10 10 C7 10 7 10 5.17578125 8.3203125 C4.56089844 7.59585938 3.94601563 6.87140625 3.3125 6.125 C2.68988281 5.40570312 2.06726563 4.68640625 1.42578125 3.9453125 C0 2 0 2 0 0 Z " fill="#30A380" transform="translate(200,551)"/>
<path d="M0 0 C0.99 0 1.98 0 3 0 C2.505 0.7425 2.505 0.7425 2 1.5 C0.56363642 5.09090894 0.87148538 8.14456127 1 12 C-0.5625 11 -0.5625 11 -2 9 C-2.01689698 6.19510065 -1.5386319 3.78293146 -1 1 C-0.67 0.67 -0.34 0.34 0 0 Z " fill="#2F496F" transform="translate(965,462)"/>
<path d="M0 0 C3.59905908 0.55550695 4.99909799 1.74887248 7.25 4.5625 C8.03117187 5.52349609 8.03117187 5.52349609 8.828125 6.50390625 C9.21484375 6.99761719 9.6015625 7.49132812 10 8 C7 8 7 8 5.17578125 6.50390625 C4.56089844 5.86324219 3.94601562 5.22257812 3.3125 4.5625 C2.68988281 3.92441406 2.06726563 3.28632813 1.42578125 2.62890625 C0 1 0 1 0 0 Z " fill="#536787" transform="translate(281,386)"/>
<path d="M0 0 C4.2742558 1.5830577 6.26531794 4.50568404 9 8 C6 8 6 8 4.39453125 6.7578125 C3.87246094 6.21898437 3.35039062 5.68015625 2.8125 5.125 C2.28269531 4.59132813 1.75289062 4.05765625 1.20703125 3.5078125 C0 2 0 2 0 0 Z " fill="#43597B" transform="translate(150,567)"/>
<path d="M0 0 C0.66 0 1.32 0 2 0 C3.46845421 5.47332932 2.44038726 8.11922548 0 13 C-0.66 12.34 -1.32 11.68 -2 11 C-1.34 10.01 -0.68 9.02 0 8 C0.24055468 5.94290404 0.24055468 5.94290404 0.125 3.8125 C0.08375 2.554375 0.0425 1.29625 0 0 Z " fill="#3E5277" transform="translate(881,537)"/>
<path d="M0 0 C0.66 0 1.32 0 2 0 C3.42258812 3.82320557 4.24042276 6.91281305 4 11 C3.34 11 2.68 11 2 11 C1.34 7.37 0.68 3.74 0 0 Z " fill="#2C486F" transform="translate(461,501)"/>
<path d="M0 0 C0.66 0.33 1.32 0.66 2 1 C1.67 1.99 1.34 2.98 1 4 C0.01 4.33 -0.98 4.66 -2 5 C-3.20882096 7.00016466 -3.20882096 7.00016466 -4 9 C-4.66 9 -5.32 9 -6 9 C-4.68775452 5.06326356 -3.08089673 2.77280706 0 0 Z " fill="#30486F" transform="translate(479,517)"/>
<path d="M0 0 C2.3125 0.1875 2.3125 0.1875 5 1 C6.9375 3.3125 6.9375 3.3125 8 6 C7.1875 8.3125 7.1875 8.3125 6 10 C5.566875 8.906875 5.13375 7.81375 4.6875 6.6875 C3.50504359 3.90591207 2.39199957 1.93638061 0 0 Z " fill="#475F82" transform="translate(929,497)"/>
<path d="M0 0 C4.95696581 1.23924145 7.11658466 2.78577758 10 7 C7 7 7 7 5.3125 5.625 C4 4 4 4 4 2 C2.68 2 1.36 2 0 2 C0 1.34 0 0.68 0 0 Z " fill="#415B7E" transform="translate(272,378)"/>
<path d="M0 0 C0 0.66 0 1.32 0 2 C-0.61875 2.0825 -1.2375 2.165 -1.875 2.25 C-4.18437567 2.81258459 -4.18437567 2.81258459 -5.25 5.0625 C-5.4975 5.701875 -5.745 6.34125 -6 7 C-6.66 7 -7.32 7 -8 7 C-7.8125 5.1875 -7.8125 5.1875 -7 3 C-2.82142857 0 -2.82142857 0 0 0 Z " fill="#2A446B" transform="translate(909,484)"/>
<path d="M0 0 C2.75 -0.25 2.75 -0.25 6 0 C8.375 2 8.375 2 10 4 C6.38970831 4 3.44193324 3.03907418 0 2 C0 1.34 0 0.68 0 0 Z " fill="#42577A" transform="translate(970,459)"/>
<path d="M0 0 C2.3125 0.1875 2.3125 0.1875 5 1 C6.8125 3.5625 6.8125 3.5625 8 6 C7.01 7.485 7.01 7.485 6 9 C5.7525 7.88625 5.505 6.7725 5.25 5.625 C4.38994661 1.95384802 4.38994661 1.95384802 1.875 0.5625 C1.25625 0.376875 0.6375 0.19125 0 0 Z " fill="#435A7C" transform="translate(510,497)"/>
<path d="M0 0 C2.31 1.98 4.62 3.96 7 6 C6.34 6.66 5.68 7.32 5 8 C2.5 5.6875 2.5 5.6875 0 3 C0 2.01 0 1.02 0 0 Z " fill="#576A8A" transform="translate(281,359)"/>
<path d="M0 0 C-0.99 0.495 -0.99 0.495 -2 1 C-2.33 1.66 -2.66 2.32 -3 3 C-5.64 2.67 -8.28 2.34 -11 2 C-11 1.67 -11 1.34 -11 1 C-3.375 -1.125 -3.375 -1.125 0 0 Z " fill="#37A585" transform="translate(253,538)"/>
<path d="M0 0 C0.66 0.99 1.32 1.98 2 3 C0.35 4.32 -1.3 5.64 -3 7 C-3.33 6.01 -3.66 5.02 -4 4 C-2.68 2.68 -1.36 1.36 0 0 Z " fill="#37B792" transform="translate(201,469)"/>
<path d="M0 0 C-0.8125 1.9375 -0.8125 1.9375 -2 4 C-2.99 4.33 -3.98 4.66 -5 5 C-5.33 3.68 -5.66 2.36 -6 1 C-3.92446352 0.4465236 -2.15634036 0 0 0 Z " fill="#359E7C" transform="translate(243,591)"/>
<path d="M0 0 C0.66 0 1.32 0 2 0 C0.60667426 3.36720387 -0.9789286 4.9859524 -4 7 C-4 5.68 -4 4.36 -4 3 C-3.01 3 -2.02 3 -1 3 C-0.67 2.01 -0.34 1.02 0 0 Z " fill="#2FA17E" transform="translate(257,573)"/>
<path d="M0 0 C2.97 0.99 5.94 1.98 9 3 C7.02 3.99 7.02 3.99 5 5 C2.25 3.75 2.25 3.75 0 2 C0 1.34 0 0.68 0 0 Z " fill="#4D6385" transform="translate(490,537)"/>
</svg>
